<svg width="166" height="24" viewBox="0 0 166 24" fill="none" xmlns="http://www.w3.org/2000/svg">
<path d="M32.5781 23H35.2969V0.453125H32.5469L26.5469 4.76562V7.73438L32.5156 3.4375H32.5781V23ZM45.6094 12.5938H48.4375C51.6562 12.5938 53.6562 14.2344 53.6562 16.8906C53.6562 19.25 51.5156 20.9375 48.5312 20.9375C45.5 20.9375 43.5781 19.3438 43.3281 17.0312H40.625C40.8281 20.7656 43.8438 23.375 48.5625 23.375C52.9844 23.375 56.5156 20.6719 56.5156 16.7969C56.5156 13.625 54.3281 11.5156 50.9219 11.3125V11.25C53.7344 10.75 55.5469 8.71875 55.5469 5.89062C55.5469 2.5 52.5 0.078125 48.4688 0.078125C44.2344 0.078125 41.3906 2.53125 41.0781 6.35938H43.7812C44.0312 4 45.75 2.51562 48.3438 2.51562C51.2031 2.51562 52.7188 4.03125 52.7188 6.26562C52.7188 8.54688 50.9062 10.2188 48.3125 10.2188H45.6094V12.5938ZM61.25 23H64.2031L74.2344 3.0625V0.453125H59.3125V2.95312H71.4531V3.01562L61.25 23ZM91.1875 23.375C96.7031 23.375 99.9219 18.9375 99.9219 11.3438C99.9219 8.89062 99.5625 6.85938 98.8125 5.125C97.4375 1.89062 94.75 0.0625 91.3594 0.0625C86.7344 0.0625 83.375 3.3125 83.375 7.76562C83.375 12.0469 86.5625 15.2188 90.8594 15.2188C93.7344 15.2188 96.2031 13.7656 97.1562 11.5312C97.1719 11.5312 97.1719 11.5312 97.1875 11.5312H97.2031C97.125 17.5156 94.9688 20.9219 91.2188 20.9219C88.9844 20.9219 87.1562 19.5781 86.5625 17.5312H83.7031C84.3906 21.0625 87.3438 23.375 91.1875 23.375ZM91.3438 12.75C88.3906 12.75 86.2188 10.6094 86.2188 7.67188C86.2188 4.84375 88.5 2.59375 91.3906 2.59375C94.2969 2.59375 96.5469 4.85938 96.5469 7.75C96.5469 10.625 94.3281 12.75 91.3438 12.75ZM111.062 23.375C116.312 23.375 119.344 18.8281 119.344 11.7031C119.344 4.625 116.297 0.078125 111.062 0.078125C105.828 0.078125 102.75 4.65625 102.75 11.7188C102.75 18.8438 105.797 23.375 111.062 23.375ZM111.062 20.9219C107.531 20.9219 105.578 17.3281 105.578 11.7031C105.578 6.20312 107.578 2.54688 111.062 2.54688C114.547 2.54688 116.516 6.17188 116.516 11.7188C116.516 17.3438 114.578 20.9219 111.062 20.9219ZM130.469 23.375C135.719 23.375 138.75 18.8281 138.75 11.7031C138.75 4.625 135.703 0.078125 130.469 0.078125C125.234 0.078125 122.156 4.65625 122.156 11.7188C122.156 18.8438 125.203 23.375 130.469 23.375ZM130.469 20.9219C126.938 20.9219 124.984 17.3281 124.984 11.7031C124.984 6.20312 126.984 2.54688 130.469 2.54688C133.953 2.54688 135.922 6.17188 135.922 11.7188C135.922 17.3438 133.984 20.9219 130.469 20.9219ZM153.953 2.95312H157.547C160.781 2.95312 162.344 4.67188 162.344 7.375C162.344 10.0938 160.766 11.8281 157.547 11.8281H153.953V2.95312ZM160.438 19.4062V17.2812H153.953V14.2656H158.25C162.484 14.2656 165.234 11.3438 165.234 7.375C165.234 3.42188 162.516 0.453125 158.281 0.453125H151.141V11.8281H148.016V14.2656H151.141V17.2812H148.016V19.4062H151.141V23H153.953V19.4062H160.438Z" fill="#1E3240"/>
<path d="M5.41016 19.1758C8.21289 19.1758 10.1074 17.1543 10.1074 13.9219C10.1074 10.6797 8.21289 8.66797 5.41016 8.66797C2.59766 8.66797 0.703125 10.6797 0.703125 13.9219C0.703125 17.1543 2.59766 19.1758 5.41016 19.1758ZM5.41016 17.6816C3.61328 17.6816 2.43164 16.3145 2.43164 13.9219C2.43164 11.5293 3.61328 10.1621 5.41016 10.1621C7.20703 10.1621 8.37891 11.5293 8.37891 13.9219C8.37891 16.3145 7.20703 17.6816 5.41016 17.6816ZM19.0332 8.84375H10.791V10.2402H14.0723V19H15.752V10.2402H19.0332V8.84375Z" fill="#1E3240"/>
</svg>
