<svg width="191" height="28" viewBox="0 0 191 28" fill="none" xmlns="http://www.w3.org/2000/svg">
<path d="M0.809953 27H6.09502V7.5973H0.809953V27ZM3.45248 5.46156C5.04524 5.46156 6.27601 4.24889 6.27601 2.72853C6.27601 1.19007 5.04524 -0.00449827 3.45248 -0.00449827C1.85973 -0.00449827 0.628958 1.19007 0.628958 2.72853C0.628958 4.24889 1.85973 5.46156 3.45248 5.46156ZM10.0769 0.882379V27H15.543V18.7647H20.4298C25.9321 18.7647 29.7511 15.181 29.7511 9.82355C29.7511 4.44799 26.0588 0.882379 20.7013 0.882379H10.0769ZM15.543 5.20817H19.2534C22.3846 5.20817 24.1945 6.87332 24.1945 9.84165C24.1945 12.8281 22.3665 14.4932 19.2353 14.4932H15.543V5.20817ZM32.6651 27H37.9502V15.9231C37.9502 13.3711 39.4163 11.6154 41.914 11.6154C44.3212 11.6154 45.552 13.1358 45.552 15.6335V27H50.8371V14.5113C50.8371 10.0226 48.3755 7.23531 44.0678 7.23531C41.1176 7.23531 39 8.61088 37.9683 11.0543H37.8597V0.882379H32.6651V27Z" fill="#1E3240"/>
<path d="M102.365 27H107.651V15.8688C107.651 13.353 109.153 11.6154 111.524 11.6154C113.895 11.6154 115.089 13.0634 115.089 15.5973V27H120.374V14.4932C120.374 9.95024 117.949 7.23531 113.641 7.23531C110.655 7.23531 108.61 8.64708 107.578 11.0543H107.47V7.5973H102.365V27ZM132.429 11.0905C134.782 11.0905 136.393 12.7919 136.501 15.2715H128.266C128.447 12.8462 130.112 11.0905 132.429 11.0905ZM136.574 21.0634C136.085 22.5475 134.601 23.5068 132.664 23.5068C129.967 23.5068 128.212 21.6063 128.212 18.8371V18.5113H141.587V16.9005C141.587 11 138.022 7.18102 132.374 7.18102C126.637 7.18102 123.017 11.1991 123.017 17.3891C123.017 23.5973 126.601 27.4163 132.574 27.4163C137.37 27.4163 140.845 24.8643 141.424 21.0634H136.574Z" fill="#1E3240"/>
<path d="M157.951 27.4231H163.363V1.30552H157.933L151.182 5.9933V10.9164L157.843 6.31909H157.951V27.4231ZM181.68 27.4231H186.874V22.7716H190.277V18.3915H186.874V1.30552H179.164C173.806 9.19692 170.965 13.7761 168.684 18.12V22.7716H181.68V27.4231ZM173.481 18.4096C175.598 14.3191 177.879 10.7535 181.68 5.17882H181.788V18.5544H173.481V18.4096Z" fill="#1E3240"/>
<rect x="57.412" y="10.8193" width="37.9651" height="14.4079" rx="7.20395" stroke="#1E3240" stroke-width="4.63348"/>
</svg>
